<svg width="29" height="34" viewBox="0 0 29 34" fill="none" xmlns="http://www.w3.org/2000/svg">
<path fill-rule="evenodd" clip-rule="evenodd" d="M0 1.5C0 0.671573 0.671573 0 1.5 0C2.32843 0 3 0.671573 3 1.5V7.54519V8.5C3 8.77614 3.22386 9 3.5 9C3.77614 9 4 8.77614 4 8.5V7.18821V1.5C4 0.671573 4.67157 0 5.5 0C6.32843 0 7 0.671573 7 1.5V7.18821V8.5C7 8.77614 7.22386 9 7.5 9C7.77614 9 8 8.77614 8 8.5V7.54519V1.5C8 0.671573 8.67157 0 9.5 0C10.3284 0 11 0.671573 11 1.5V11.5C11 11.5616 10.9963 11.6224 10.9891 11.6821C10.9963 11.7872 11 11.8932 11 12C11 13.943 9.78084 15.6272 8 16.4548V31.5C8 32.8807 6.88071 34 5.5 34C4.11929 34 3 32.8807 3 31.5V16.4548C1.21916 15.6272 0 13.943 0 12C0 11.8932 0.00368262 11.7872 0.0109387 11.6821C0.00371688 11.6224 0 11.5616 0 11.5V1.5ZM25 17.3102C27.349 15.9539 29 12.7439 29 9C29 4.02944 26.0899 0 22.5 0C18.9101 0 16 4.02944 16 9C16 12.7439 17.651 15.9539 20 17.3102V31.5C20 32.8807 21.1193 34 22.5 34C23.8807 34 25 32.8807 25 31.5V17.3102Z" fill="#25272F"/>
</svg>
