<svg width="171" height="182" viewBox="0 0 171 182" fill="none" xmlns="http://www.w3.org/2000/svg">
<path fill-rule="evenodd" clip-rule="evenodd" d="M18.9458 54.1778V143.101C28.1914 141.06 39.8671 141.189 52.0855 143.974C64.7225 146.855 75.6054 152.044 83.0848 158.153V69.2296C75.6054 63.1206 64.7225 57.9316 52.0855 55.0512C39.8671 52.2662 28.1914 52.1368 18.9458 54.1778Z" fill="black"/>
<path fill-rule="evenodd" clip-rule="evenodd" d="M151.599 54.504V143.423C142.353 141.382 130.678 141.511 118.459 144.296C105.822 147.176 94.9395 152.365 87.4602 158.474V69.5557C94.9395 63.4468 105.822 58.2578 118.459 55.3774C130.678 52.5924 142.353 52.463 151.599 54.504Z" fill="black"/>
<path fill-rule="evenodd" clip-rule="evenodd" d="M170.547 72.062H161.801V152.594C152.733 147.677 138.594 146.011 123.367 148.911C111.852 151.104 101.764 155.518 94.5341 160.983H170.548C170.548 160.982 170.548 160.982 170.547 160.981V72.062ZM83.0722 177.023V182C83.0623 181.945 83.0528 181.89 83.0436 181.835C82.7786 180.242 82.7957 178.632 83.0722 177.023Z" fill="black"/>
<path fill-rule="evenodd" clip-rule="evenodd" d="M0.00105286 72.062H8.74728V152.594C17.8154 147.677 31.9547 146.011 47.1816 148.911C58.696 151.104 68.7846 155.518 76.0142 160.983H0.000114441C0.000427246 160.982 0.000740051 160.982 0.00105286 160.981V72.062ZM87.4762 177.023V182C87.486 181.945 87.4955 181.89 87.5047 181.835C87.7697 180.242 87.7526 178.632 87.4762 177.023Z" fill="black"/>
<rect x="42.6357" width="82.1173" height="44.217" rx="2.96915" fill="black"/>
<rect x="42.6357" width="82.1173" height="44.217" rx="2.96915" fill="black"/>
<path d="M85.7307 55.5547C86.3228 56.2383 87.3832 56.2383 87.9752 55.5547L101.137 40.3569C101.97 39.3954 101.287 37.9004 100.015 37.9004H73.6913C72.4193 37.9004 71.7364 39.3954 72.569 40.3569L85.7307 55.5547Z" fill="black"/>
<path d="M83.0954 34.6625V12.7883H84.4968V34.6625H83.0954ZM86.8124 20.0085C86.744 19.3192 86.4506 18.7838 85.9323 18.4021C85.4139 18.0204 84.7104 17.8296 83.8217 17.8296C83.2179 17.8296 82.7081 17.9151 82.2923 18.086C81.8764 18.2511 81.5574 18.4819 81.3353 18.7781C81.1188 19.0743 81.0106 19.4104 81.0106 19.7863C80.9992 20.0996 81.0647 20.3731 81.2071 20.6066C81.3552 20.8402 81.5574 21.0424 81.8138 21.2133C82.0701 21.3785 82.3663 21.5237 82.7024 21.6491C83.0385 21.7687 83.3974 21.8712 83.779 21.9567L85.3512 22.3326C86.1145 22.5035 86.8152 22.7314 87.4532 23.0162C88.0912 23.301 88.6438 23.6513 89.1109 24.0672C89.578 24.483 89.9397 24.9729 90.196 25.5369C90.4581 26.1008 90.5919 26.7474 90.5976 27.4765C90.5919 28.5474 90.3185 29.4759 89.7773 30.262C89.2419 31.0424 88.4672 31.6491 87.4532 32.082C86.4449 32.5093 85.2288 32.7229 83.8047 32.7229C82.3919 32.7229 81.1615 32.5064 80.1134 32.0735C79.0709 31.6406 78.2563 30.9997 77.6696 30.151C77.0886 29.2965 76.7838 28.2398 76.7553 26.9809H80.3355C80.3754 27.5676 80.5435 28.0575 80.8397 28.4506C81.1416 28.8379 81.5432 29.1313 82.0445 29.3307C82.5514 29.5244 83.1239 29.6212 83.7619 29.6212C84.3885 29.6212 84.9325 29.5301 85.394 29.3478C85.8611 29.1655 86.2228 28.912 86.4791 28.5873C86.7355 28.2626 86.8636 27.8895 86.8636 27.4679C86.8636 27.0749 86.7469 26.7445 86.5133 26.4768C86.2854 26.209 85.9494 25.9812 85.505 25.7932C85.0664 25.6052 84.5281 25.4343 83.8901 25.2805L81.9846 24.802C80.5093 24.4432 79.3444 23.8821 78.4899 23.1187C77.6354 22.3554 77.2111 21.3272 77.2167 20.0341C77.2111 18.9746 77.493 18.0489 78.0627 17.2571C78.638 16.4653 79.427 15.8473 80.4295 15.4029C81.4321 14.9586 82.5714 14.7365 83.8474 14.7365C85.1462 14.7365 86.2797 14.9586 87.2481 15.4029C88.2222 15.8473 88.9798 16.4653 89.521 17.2571C90.0622 18.0489 90.3413 18.966 90.3584 20.0085H86.8124Z" fill="white"/>
</svg>
