<svg width="37" height="37" viewBox="0 0 37 37" fill="none" xmlns="http://www.w3.org/2000/svg">
<circle cx="18.5" cy="18.5" r="18.5" fill="#F9F9FF"/>
<mask id="path-2-inside-1_920_29685" fill="white">
<path fill-rule="evenodd" clip-rule="evenodd" d="M16.9472 8C16.2611 8 15.663 8.46695 15.4966 9.13256L15.0971 10.7307L12.3813 12.3676L11.2414 11.9807C10.5168 11.7348 9.7234 12.0757 9.40303 12.7706L8.43767 14.8647C8.11436 15.5661 8.37836 16.3982 9.04685 16.785L9.88648 17.2707L9.97707 19.9106L8.69054 20.7324C8.04562 21.1443 7.81581 21.9767 8.15804 22.6611L9.18927 24.7236C9.53464 25.4144 10.3492 25.7284 11.0689 25.4483L12.6656 24.8269L15.1697 26.5657L15.2625 27.4936C15.3427 28.2961 16.045 28.8904 16.8497 28.8367L19.6177 28.6522C20.4031 28.5999 21.0134 27.9475 21.0134 27.1603V26.4883L23.3938 25.2646L23.9777 25.6308C24.6655 26.0622 25.5718 25.8659 26.0195 25.1887L27.7522 22.5676C28.1709 21.9342 28.0484 21.0875 27.4673 20.5987L26.7241 19.9737L26.8806 16.0707C26.8833 16.0021 26.8816 15.9349 26.8757 15.8693L27.443 15.335C28.0193 14.7922 28.0726 13.8942 27.5646 13.2871L26.1001 11.5368C25.6598 11.0106 24.9179 10.8516 24.3006 11.1511L23.4239 11.5765L20.8154 10.2561C20.8006 10.2485 20.7856 10.2413 20.7706 10.2343L20.722 9.40741C20.6755 8.61709 20.021 8 19.2294 8H16.9472ZM18.4669 22.2034C20.5314 22.2034 22.2049 20.5298 22.2049 18.4654C22.2049 16.4009 20.5314 14.7273 18.4669 14.7273C16.4025 14.7273 14.7289 16.4009 14.7289 18.4654C14.7289 20.5298 16.4025 22.2034 18.4669 22.2034Z"/>
</mask>
<path d="M15.4966 9.13256L14.1384 8.79301V8.79302L15.4966 9.13256ZM15.0971 10.7307L15.8198 11.9298L16.315 11.6313L16.4553 11.0703L15.0971 10.7307ZM12.3813 12.3676L11.9313 13.6933L12.5471 13.9023L13.104 13.5666L12.3813 12.3676ZM11.2414 11.9807L11.6914 10.655H11.6914L11.2414 11.9807ZM9.40303 12.7706L10.6744 13.3567L9.40303 12.7706ZM8.43767 14.8647L7.16627 14.2786L8.43767 14.8647ZM9.04685 16.785L9.74787 15.5731L9.74787 15.5731L9.04685 16.785ZM9.88648 17.2707L11.2857 17.2227L11.2591 16.4473L10.5875 16.0588L9.88648 17.2707ZM9.97707 19.9106L10.7307 21.0905L11.4036 20.6607L11.3762 19.8626L9.97707 19.9106ZM8.69054 20.7324L9.44415 21.9122H9.44415L8.69054 20.7324ZM8.15804 22.6611L9.41024 22.035H9.41024L8.15804 22.6611ZM9.18927 24.7236L7.93707 25.3497L7.93707 25.3497L9.18927 24.7236ZM11.0689 25.4483L11.5767 26.753H11.5767L11.0689 25.4483ZM12.6656 24.8269L13.4641 23.6769L12.8522 23.252L12.1579 23.5222L12.6656 24.8269ZM15.1697 26.5657L16.5627 26.4264L16.4985 25.7839L15.9682 25.4157L15.1697 26.5657ZM15.2625 27.4936L13.8694 27.6329L15.2625 27.4936ZM16.8497 28.8367L16.9429 30.2336L16.9429 30.2336L16.8497 28.8367ZM19.6177 28.6522L19.5246 27.2553L19.5246 27.2553L19.6177 28.6522ZM21.0134 26.4883L20.3733 25.2432L19.6134 25.6339V26.4883H21.0134ZM23.3938 25.2646L24.1377 24.0786L23.4625 23.6551L22.7537 24.0195L23.3938 25.2646ZM23.9777 25.6308L23.2338 26.8168L23.9777 25.6308ZM26.0195 25.1887L27.1874 25.9607V25.9607L26.0195 25.1887ZM27.7522 22.5676L28.9201 23.3396L28.9201 23.3396L27.7522 22.5676ZM27.4673 20.5987L26.5662 21.6702L26.5662 21.6702L27.4673 20.5987ZM26.7241 19.9737L25.3252 19.9177L25.2978 20.6034L25.823 21.0452L26.7241 19.9737ZM26.8806 16.0707L25.4817 16.0146V16.0146L26.8806 16.0707ZM26.8757 15.8693L25.9158 14.8502L25.4209 15.3164L25.4813 15.9936L26.8757 15.8693ZM27.443 15.335L28.4029 16.3541L28.4029 16.3541L27.443 15.335ZM27.5646 13.2871L28.6383 12.3887V12.3887L27.5646 13.2871ZM26.1001 11.5368L27.1738 10.6384L27.1738 10.6384L26.1001 11.5368ZM24.3006 11.1511L24.9118 12.4106L24.3006 11.1511ZM23.4239 11.5765L22.7916 12.8256L23.4107 13.139L24.0351 12.836L23.4239 11.5765ZM20.8154 10.2561L20.1831 11.5051L20.1832 11.5052L20.8154 10.2561ZM20.7706 10.2343L19.373 10.3165L19.4221 11.1504L20.1793 11.5033L20.7706 10.2343ZM20.722 9.40741L22.1196 9.32519V9.32519L20.722 9.40741ZM16.8548 9.47211C16.8654 9.42973 16.9035 9.4 16.9472 9.4V6.6C15.6187 6.6 14.4606 7.50416 14.1384 8.79301L16.8548 9.47211ZM16.4553 11.0703L16.8548 9.47211L14.1384 8.79302L13.7389 10.3912L16.4553 11.0703ZM13.104 13.5666L15.8198 11.9298L14.3744 9.53167L11.6586 11.1685L13.104 13.5666ZM10.7915 13.3064L11.9313 13.6933L12.8312 11.0418L11.6914 10.655L10.7915 13.3064ZM10.6744 13.3567C10.6948 13.3125 10.7454 13.2908 10.7915 13.3064L11.6914 10.655C10.2882 10.1788 8.75197 10.8389 8.13162 12.1845L10.6744 13.3567ZM9.70908 15.4508L10.6744 13.3567L8.13162 12.1845L7.16627 14.2786L9.70908 15.4508ZM9.74787 15.5731C9.70531 15.5485 9.6885 15.4955 9.70908 15.4508L7.16627 14.2786C6.54023 15.6367 7.05142 17.248 8.34583 17.9968L9.74787 15.5731ZM10.5875 16.0588L9.74787 15.5731L8.34582 17.9968L9.18546 18.4825L10.5875 16.0588ZM11.3762 19.8626L11.2857 17.2227L8.48731 17.3187L8.57789 19.9586L11.3762 19.8626ZM9.44415 21.9122L10.7307 21.0905L9.22347 18.7308L7.93693 19.5525L9.44415 21.9122ZM9.41024 22.035C9.38845 21.9915 9.40308 21.9385 9.44415 21.9122L7.93694 19.5525C6.68815 20.3501 6.24317 21.9619 6.90584 23.2872L9.41024 22.035ZM10.4415 24.0975L9.41024 22.035L6.90584 23.2872L7.93707 25.3497L10.4415 24.0975ZM10.5612 24.1437C10.5153 24.1615 10.4635 24.1415 10.4415 24.0975L7.93707 25.3497C8.60583 26.6872 10.1831 27.2954 11.5767 26.753L10.5612 24.1437ZM12.1579 23.5222L10.5612 24.1437L11.5767 26.753L13.1734 26.1316L12.1579 23.5222ZM15.9682 25.4157L13.4641 23.6769L11.8671 25.9768L14.3712 27.7156L15.9682 25.4157ZM16.6555 27.3543L16.5627 26.4264L13.7766 26.705L13.8694 27.6329L16.6555 27.3543ZM16.7566 27.4398C16.7054 27.4433 16.6606 27.4054 16.6555 27.3543L13.8694 27.6329C14.0248 29.1869 15.3846 30.3375 16.9429 30.2336L16.7566 27.4398ZM19.5246 27.2553L16.7566 27.4398L16.9429 30.2336L19.7108 30.0491L19.5246 27.2553ZM19.6134 27.1603C19.6134 27.2104 19.5746 27.252 19.5246 27.2553L19.7108 30.0491C21.2317 29.9477 22.4134 28.6845 22.4134 27.1603H19.6134ZM19.6134 26.4883V27.1603H22.4134V26.4883H19.6134ZM22.7537 24.0195L20.3733 25.2432L21.6535 27.7334L24.0339 26.5097L22.7537 24.0195ZM24.7216 24.4448L24.1377 24.0786L22.6499 26.4506L23.2338 26.8168L24.7216 24.4448ZM24.8516 24.4167C24.8231 24.4598 24.7654 24.4723 24.7216 24.4448L23.2338 26.8168C24.5655 27.6521 26.3205 27.2721 27.1874 25.9607L24.8516 24.4167ZM26.5843 21.7955L24.8516 24.4167L27.1874 25.9607L28.9201 23.3396L26.5843 21.7955ZM26.5662 21.6702C26.6032 21.7013 26.611 21.7552 26.5843 21.7955L28.9201 23.3396C29.7309 22.1131 29.4936 20.4736 28.3684 19.5273L26.5662 21.6702ZM25.823 21.0452L26.5662 21.6702L28.3684 19.5273L27.6252 18.9023L25.823 21.0452ZM25.4817 16.0146L25.3252 19.9177L28.123 20.0298L28.2794 16.1267L25.4817 16.0146ZM25.4813 15.9936C25.4817 15.9989 25.482 16.0058 25.4817 16.0146L28.2794 16.1268C28.2846 15.9984 28.2814 15.8709 28.2702 15.745L25.4813 15.9936ZM26.4831 14.3159L25.9158 14.8502L27.8357 16.8884L28.4029 16.3541L26.4831 14.3159ZM26.4909 14.1855C26.5232 14.2241 26.5198 14.2813 26.4831 14.3159L28.4029 16.3541C29.5188 15.303 29.622 13.5643 28.6383 12.3887L26.4909 14.1855ZM25.0263 12.4352L26.4909 14.1855L28.6383 12.3887L27.1738 10.6384L25.0263 12.4352ZM24.9118 12.4106C24.9511 12.3916 24.9983 12.4017 25.0263 12.4352L27.1738 10.6384C26.3212 9.61949 24.8847 9.31156 23.6894 9.89153L24.9118 12.4106ZM24.0351 12.836L24.9118 12.4106L23.6894 9.89153L22.8127 10.3169L24.0351 12.836ZM20.1832 11.5052L22.7916 12.8256L24.0562 10.3274L21.4477 9.00699L20.1832 11.5052ZM20.1793 11.5033C20.1805 11.5039 20.1818 11.5045 20.1831 11.5051L21.4478 9.00699C21.4193 8.9926 21.3907 8.9787 21.362 8.9653L20.1793 11.5033ZM19.3244 9.48962L19.373 10.3165L22.1682 10.1521L22.1196 9.32519L19.3244 9.48962ZM19.2294 9.4C19.2798 9.4 19.3214 9.43929 19.3244 9.48962L22.1196 9.32519C22.0296 7.7949 20.7623 6.6 19.2294 6.6V9.4ZM16.9472 9.4H19.2294V6.6H16.9472V9.4ZM20.8049 18.4654C20.8049 19.7566 19.7582 20.8034 18.4669 20.8034V23.6034C21.3046 23.6034 23.6049 21.303 23.6049 18.4654H20.8049ZM18.4669 16.1273C19.7582 16.1273 20.8049 17.1741 20.8049 18.4654H23.6049C23.6049 15.6277 21.3046 13.3273 18.4669 13.3273V16.1273ZM16.1289 18.4654C16.1289 17.1741 17.1757 16.1273 18.4669 16.1273V13.3273C15.6293 13.3273 13.3289 15.6277 13.3289 18.4654H16.1289ZM18.4669 20.8034C17.1757 20.8034 16.1289 19.7566 16.1289 18.4654H13.3289C13.3289 21.303 15.6293 23.6034 18.4669 23.6034V20.8034Z" fill="#8181B0" mask="url(#path-2-inside-1_920_29685)"/>
</svg>
